<svg xmlns="http://www.w3.org/2000/svg" version="1.1" xmlns:xlink="http://www.w3.org/1999/xlink" xmlns:svgjs="http://svgjs.dev/svgjs" width="1000" height="623" viewBox="0 0 1000 623"><g transform="matrix(1,0,0,1,-0.6060606060606233,0.2522267206477409)"><svg viewBox="0 0 396 247" data-background-color="#ffffff" preserveAspectRatio="xMidYMid meet" height="623" width="1000" xmlns="http://www.w3.org/2000/svg" xmlns:xlink="http://www.w3.org/1999/xlink"><g id="tight-bounds" transform="matrix(1,0,0,1,0.2400000000000091,-0.09999999999999432)"><svg viewBox="0 0 395.52 247.2" height="247.2" width="395.52"><g><svg></svg></g><g><svg viewBox="0 0 395.52 247.2" height="247.2" width="395.52"><g transform="matrix(1,0,0,1,95.21407901866544,47.215199999999996)"><svg viewBox="0 0 205.0918419626691 152.7696" height="152.7696" width="205.0918419626691"><g><svg viewBox="0 0 205.0918419626691 152.7696" height="152.7696" width="205.0918419626691"><g><svg viewBox="0 0 244.43135999999998 182.07297149075754" height="152.7696" width="205.0918419626691"><g><svg viewBox="0 0 244.43135999999998 182.07297149075754" height="182.07297149075754" width="244.43135999999998"><g id="textblocktransform"><svg viewBox="0 0 244.43135999999998 182.07297149075754" height="182.07297149075754" width="244.43135999999998" id="textblock"><g><svg viewBox="0 0 244.43135999999998 131.32266062593143" height="131.32266062593143" width="244.43135999999998"><g transform="matrix(1,0,0,1,0,0)"><svg width="244.43135999999998" viewBox="4.449999809265137 -35.75 67.10000610351562 36.04999923706055" height="131.32266062593143" data-palette-color="#97978d"><path d="M7.95 0L4.45 0 4.45-35.5 7.95-35.5 7.95 0ZM42.05-35.5L42.05-32.4 29.4-32.4 29.4 0 25.9 0 25.9-32.4 13.25-32.4 13.25-35.5 42.05-35.5ZM69.8-31.65L68.09-28.85Q67.34-29.7 66.34-30.38 65.34-31.05 64.09-31.55 62.85-32.05 61.42-32.35 60-32.65 58.4-32.65L58.4-32.65Q53.75-32.65 51.57-30.88 49.4-29.1 49.4-26.05L49.4-26.05Q49.4-23.95 50.42-22.75 51.45-21.55 53.65-20.8 55.85-20.05 59.25-19.25L59.25-19.25Q63.05-18.45 65.8-17.35 68.55-16.25 70.05-14.38 71.55-12.5 71.55-9.3L71.55-9.3Q71.55-6.85 70.59-5.05 69.65-3.25 67.95-2.05 66.25-0.85 63.9-0.28 61.55 0.3 58.75 0.3L58.75 0.3Q56 0.3 53.47-0.28 50.95-0.85 48.7-1.98 46.45-3.1 44.5-4.85L44.5-4.85 46.25-7.7Q47.2-6.7 48.52-5.83 49.85-4.95 51.47-4.25 53.1-3.55 54.97-3.18 56.85-2.8 58.85-2.8L58.85-2.8Q63.1-2.8 65.47-4.35 67.84-5.9 67.84-8.95L67.84-8.95Q67.84-11.15 66.65-12.48 65.45-13.8 63.05-14.65 60.65-15.5 57.15-16.3L57.15-16.3Q53.45-17.15 50.9-18.2 48.35-19.25 47.07-20.98 45.8-22.7 45.8-25.55L45.8-25.55Q45.8-28.85 47.42-31.13 49.05-33.4 51.9-34.58 54.75-35.75 58.45-35.75L58.45-35.75Q60.8-35.75 62.82-35.27 64.84-34.8 66.57-33.9 68.3-33 69.8-31.65L69.8-31.65Z" opacity="1" transform="matrix(1,0,0,1,0,0)" fill="#97978d" class="wordmark-text-0" data-fill-palette-color="primary" id="text-0"></path></svg></g></svg></g><g transform="matrix(1,0,0,1,0,162.32478905585882)"><svg viewBox="0 0 244.43135999999998 19.74818243489873" height="19.74818243489873" width="244.43135999999998"><g transform="matrix(1,0,0,1,0,0)"><svg width="244.43135999999998" viewBox="3 -40.95000076293945 673.8800048828125 54.45000076293945" height="19.74818243489873" data-palette-color="#97978d"><path d="M7.85-2.6L7.85-34.45 3-35 3-37.15 16.85-37.15 16.85-35 12-34.45 12-2.6 16.85-2.1 16.85 0 3 0 3-2.15 7.85-2.6ZM25.25-2.55L25.25-24.45 21.4-25.3 21.4-27.55 27.75-28.35 27.9-28.35 28.85-27.55 28.85-25.35 28.8-24.1Q30.65-25.7 33.7-27.05 36.75-28.4 39.35-28.4L39.35-28.4Q42.55-28.4 44.27-27.18 46-25.95 46.67-23.43 47.35-20.9 47.35-16.65L47.35-16.65 47.35-2.5 51.1-2.15 51.1 0 39.95 0 39.95-2.15 43.3-2.5 43.3-16.7Q43.3-19.85 42.87-21.65 42.45-23.45 41.22-24.38 40-25.3 37.65-25.3L37.65-25.3Q35.65-25.3 33.32-24.3 31-23.3 29.3-21.95L29.3-21.95 29.3-2.55 32.95-2.15 32.95 0 21.9 0 21.9-2.15 25.25-2.55ZM63.4 0.55Q60.75 0.55 59.4-0.68 58.05-1.9 58.05-5.05L58.05-5.05 58.05-24.8 54.25-24.8 54.25-26.75Q56.75-27.3 57.15-27.55L57.15-27.55Q57.9-27.95 58.25-29.1L58.25-29.1Q58.55-29.85 59.05-31.8 59.55-33.75 59.8-34.85L59.8-34.85 62.1-34.85 62.1-27.75 70.95-27.75 70.95-24.8 62.1-24.8 62.1-8.6Q62.1-5.7 62.3-4.53 62.5-3.35 63.1-3 63.7-2.65 65.2-2.65L65.2-2.65Q66.65-2.65 68.45-3.05 70.25-3.45 71.15-3.9L71.15-3.9 71.8-2Q70.65-1.1 68-0.28 65.34 0.55 63.4 0.55L63.4 0.55ZM87.19 0.55Q81.39 0.55 78.27-3.43 75.14-7.4 75.14-14L75.14-14Q75.14-18.25 76.79-21.55 78.44-24.85 81.37-26.68 84.29-28.5 87.94-28.5L87.94-28.5Q92.39-28.5 94.87-25.95 97.34-23.4 97.54-18.6L97.54-18.6Q97.54-15.5 97.24-14.2L97.24-14.2 79.44-14.2Q79.44-8.95 81.82-5.63 84.19-2.3 88.49-2.3L88.49-2.3Q90.59-2.3 92.79-3.05 94.99-3.8 96.19-4.85L96.19-4.85 96.99-3Q95.54-1.5 92.77-0.48 89.99 0.55 87.19 0.55L87.19 0.55ZM79.49-16.55L93.04-16.55Q93.19-17.6 93.19-18.75L93.19-18.75Q93.14-22.05 91.62-24 90.09-25.95 86.94-25.95L86.94-25.95Q80.09-25.95 79.49-16.55L79.49-16.55ZM106.14-2.55L106.14-37.8 101.89-38.25 101.89-40.1 109.19-40.95 109.24-40.95 110.19-40.3 110.19-2.5 114.89-2.15 114.89 0 101.74 0 101.74-2.15 106.14-2.55ZM122.59-2.55L122.59-37.8 118.34-38.25 118.34-40.1 125.64-40.95 125.69-40.95 126.64-40.3 126.64-2.5 131.34-2.15 131.34 0 118.19 0 118.19-2.15 122.59-2.55ZM140.78-33Q138.09-33 138.09-35.85L138.09-35.85Q138.09-37.3 138.94-38.23 139.78-39.15 141.24-39.15L141.24-39.15Q142.74-39.15 143.38-38.33 144.03-37.5 144.03-36.3L144.03-36.3Q144.03-34.75 143.21-33.88 142.38-33 140.84-33L140.84-33 140.78-33ZM139.19-2.55L139.19-24.45 135.28-25.3 135.28-27.55 142.13-28.35 142.24-28.35 143.24-27.55 143.24-2.5 147.59-2.15 147.59 0 134.78 0 134.78-2.15 139.19-2.55ZM162.98 13.5Q151.18 13.5 151.18 6L151.18 6Q151.18 3.75 152.56 1.9 153.93 0.05 155.83-1L155.83-1Q153.48-2.25 153.48-5.15L153.48-5.15Q153.48-7 154.53-8.63 155.58-10.25 157.23-11.1L157.23-11.1Q154.88-12.2 153.56-14.23 152.23-16.25 152.23-18.95L152.23-18.95Q152.23-21.85 153.83-24.03 155.43-26.2 158.01-27.35 160.58-28.5 163.38-28.5L163.38-28.5Q168.03-28.5 170.83-26.45L170.83-26.45Q171.58-27.15 173.16-27.83 174.73-28.5 176.53-28.5L176.53-28.5 178.18-28.5 178.18-24.8 172.48-24.8Q173.93-22.8 173.93-19.95L173.93-19.95Q173.93-17 172.43-14.73 170.93-12.45 168.41-11.2 165.88-9.95 162.83-9.95L162.83-9.95Q160.78-9.95 159.08-10.4L159.08-10.4Q158.18-9.7 157.66-8.78 157.13-7.85 157.13-6.9L157.13-6.9Q157.13-5 158.36-4.25 159.58-3.5 162.63-3.5L162.63-3.5 168.53-3.5Q173.18-3.5 175.41-1.7 177.63 0.1 177.63 3.35L177.63 3.35Q177.63 6.05 175.68 8.38 173.73 10.7 170.36 12.1 166.98 13.5 162.98 13.5L162.98 13.5ZM163.33-12.4Q169.68-12.4 169.68-19.4L169.68-19.4Q169.68-26.05 163.08-26.05L163.08-26.05Q156.48-26.05 156.48-19.5L156.48-19.5Q156.48-16.35 158.18-14.38 159.88-12.4 163.33-12.4L163.33-12.4ZM163.23 10.95Q165.93 10.95 168.38 10.18 170.83 9.4 172.33 7.93 173.83 6.45 173.83 4.5L173.83 4.5Q173.83 2.95 173.36 2 172.88 1.05 171.51 0.53 170.13 0 167.53 0L167.53 0 161.33 0Q158.93 0 157.68-0.3L157.68-0.3Q155.23 2.05 155.23 5.2L155.23 5.2Q155.23 8.05 157.03 9.5 158.83 10.95 163.23 10.95L163.23 10.95ZM193.13 0.55Q187.33 0.55 184.2-3.43 181.08-7.4 181.08-14L181.08-14Q181.08-18.25 182.73-21.55 184.38-24.85 187.3-26.68 190.23-28.5 193.88-28.5L193.88-28.5Q198.33-28.5 200.81-25.95 203.28-23.4 203.48-18.6L203.48-18.6Q203.48-15.5 203.18-14.2L203.18-14.2 185.38-14.2Q185.38-8.95 187.75-5.63 190.13-2.3 194.43-2.3L194.43-2.3Q196.53-2.3 198.73-3.05 200.93-3.8 202.13-4.85L202.13-4.85 202.93-3Q201.48-1.5 198.7-0.48 195.93 0.55 193.13 0.55L193.13 0.55ZM185.43-16.55L198.98-16.55Q199.13-17.6 199.13-18.75L199.13-18.75Q199.08-22.05 197.55-24 196.03-25.95 192.88-25.95L192.88-25.95Q186.03-25.95 185.43-16.55L185.43-16.55ZM211.13-2.55L211.13-24.45 207.28-25.3 207.28-27.55 213.63-28.35 213.78-28.35 214.73-27.55 214.73-25.35 214.68-24.1Q216.53-25.7 219.58-27.05 222.63-28.4 225.23-28.4L225.23-28.4Q228.43-28.4 230.15-27.18 231.88-25.95 232.55-23.43 233.23-20.9 233.23-16.65L233.23-16.65 233.23-2.5 236.98-2.15 236.98 0 225.83 0 225.83-2.15 229.18-2.5 229.18-16.7Q229.18-19.85 228.75-21.65 228.33-23.45 227.1-24.38 225.88-25.3 223.53-25.3L223.53-25.3Q221.53-25.3 219.2-24.3 216.88-23.3 215.18-21.95L215.18-21.95 215.18-2.55 218.83-2.15 218.83 0 207.78 0 207.78-2.15 211.13-2.55ZM249.28 0.55Q246.63 0.55 245.28-0.68 243.93-1.9 243.93-5.05L243.93-5.05 243.93-24.8 240.13-24.8 240.13-26.75Q242.63-27.3 243.03-27.55L243.03-27.55Q243.78-27.95 244.13-29.1L244.13-29.1Q244.43-29.85 244.93-31.8 245.43-33.75 245.68-34.85L245.68-34.85 247.97-34.85 247.97-27.75 256.82-27.75 256.82-24.8 247.97-24.8 247.97-8.6Q247.97-5.7 248.18-4.53 248.38-3.35 248.97-3 249.57-2.65 251.07-2.65L251.07-2.65Q252.53-2.65 254.32-3.05 256.13-3.45 257.02-3.9L257.02-3.9 257.68-2Q256.52-1.1 253.88-0.28 251.22 0.55 249.28 0.55L249.28 0.55ZM285.27-2.6L285.27-34.9 275.77-34.6 274.17-24.45 271.42-24.45 272.27-37.15 302.72-37.15 303.27-24.45 300.62-24.45 299.22-34.6 289.57-34.9 289.57-2.6 296.72-2.15 296.72 0 278.72 0 278.72-2.15 285.27-2.6ZM329.62 0.45Q328.32 0.45 327.72 0 327.12-0.45 327.12-1.65L327.12-1.65 327.12-3.6Q325.27-1.95 322.77-0.7 320.27 0.55 317.77 0.55L317.77 0.55Q313.22 0.55 311.29-2 309.37-4.55 309.37-10.3L309.37-10.3 309.37-25 306.42-25.85 306.42-27.7 312.47-28.35 312.52-28.35 313.42-27.75 313.42-10.9Q313.42-7.75 313.87-5.98 314.32-4.2 315.52-3.35 316.72-2.5 319.02-2.5L319.02-2.5Q321.22-2.5 323.22-3.45 325.22-4.4 326.67-5.7L326.67-5.7 326.67-25 322.87-25.85 322.87-27.7 329.52-28.35 329.57-28.35 330.72-27.75 330.72-2.2 333.82-2.2 333.77-0.3Q333.52-0.25 332.32 0.1 331.12 0.45 329.62 0.45L329.62 0.45ZM346.76 0.55Q344.12 0.55 342.76-0.68 341.42-1.9 341.42-5.05L341.42-5.05 341.42-24.8 337.62-24.8 337.62-26.75Q340.12-27.3 340.51-27.55L340.51-27.55Q341.26-27.95 341.62-29.1L341.62-29.1Q341.92-29.85 342.42-31.8 342.92-33.75 343.17-34.85L343.17-34.85 345.47-34.85 345.47-27.75 354.31-27.75 354.31-24.8 345.47-24.8 345.47-8.6Q345.47-5.7 345.67-4.53 345.87-3.35 346.47-3 347.06-2.65 348.56-2.65L348.56-2.65Q350.01-2.65 351.81-3.05 353.62-3.45 354.51-3.9L354.51-3.9 355.17-2Q354.01-1.1 351.37-0.28 348.72 0.55 346.76 0.55L346.76 0.55ZM358.41-14.05Q358.41-18.4 360.24-21.7 362.06-25 365.04-26.75 368.01-28.5 371.26-28.5L371.26-28.5Q377.56-28.5 380.59-24.4 383.61-20.3 383.61-13.9L383.61-13.9Q383.61-9.55 381.79-6.25 379.96-2.95 376.99-1.2 374.01 0.55 370.76 0.55L370.76 0.55Q364.46 0.55 361.44-3.55 358.41-7.65 358.41-14.05L358.41-14.05ZM371.01-2.05Q374.86-2.05 376.96-5 379.06-7.95 379.06-13.6L379.06-13.6Q379.06-19 377.11-22.45 375.16-25.9 371.06-25.9L371.06-25.9Q367.21-25.9 365.09-22.95 362.96-20 362.96-14.35L362.96-14.35Q362.96-8.9 364.94-5.48 366.91-2.05 371.01-2.05L371.01-2.05ZM388.36 0L388.36-2.1 392.36-2.4 392.36-24.45 388.51-25.3 388.51-27.55 394.86-28.35 394.96-28.35 395.91-27.55 395.91-26.75 395.81-22.95 395.91-22.95Q396.01-23.05 397.24-24.48 398.46-25.9 400.89-27.2 403.31-28.5 405.76-28.5L405.76-28.5Q406.56-28.5 407.26-28.3L407.26-28.3 407.26-23.9Q407.06-24.05 406.39-24.2 405.71-24.35 404.96-24.35L404.96-24.35Q402.11-24.35 400.11-23.5 398.11-22.65 396.41-21.4L396.41-21.4 396.41-2.45 403.06-2.05 403.06 0 388.36 0ZM416.51-33Q413.81-33 413.81-35.85L413.81-35.85Q413.81-37.3 414.66-38.23 415.51-39.15 416.96-39.15L416.96-39.15Q418.46-39.15 419.11-38.33 419.76-37.5 419.76-36.3L419.76-36.3Q419.76-34.75 418.93-33.88 418.11-33 416.56-33L416.56-33 416.51-33ZM414.91-2.55L414.91-24.45 411.01-25.3 411.01-27.55 417.86-28.35 417.96-28.35 418.96-27.55 418.96-2.5 423.31-2.15 423.31 0 410.51 0 410.51-2.15 414.91-2.55ZM430-2.55L430-24.45 426.16-25.3 426.16-27.55 432.5-28.35 432.66-28.35 433.61-27.55 433.61-25.35 433.56-24.1Q435.41-25.7 438.46-27.05 441.5-28.4 444.11-28.4L444.11-28.4Q447.31-28.4 449.03-27.18 450.75-25.95 451.43-23.43 452.11-20.9 452.11-16.65L452.11-16.65 452.11-2.5 455.86-2.15 455.86 0 444.71 0 444.71-2.15 448.06-2.5 448.06-16.7Q448.06-19.85 447.63-21.65 447.21-23.45 445.98-24.38 444.75-25.3 442.41-25.3L442.41-25.3Q440.41-25.3 438.08-24.3 435.75-23.3 434.06-21.95L434.06-21.95 434.06-2.55 437.71-2.15 437.71 0 426.66 0 426.66-2.15 430-2.55ZM471.35 13.5Q459.55 13.5 459.55 6L459.55 6Q459.55 3.75 460.93 1.9 462.3 0.05 464.2-1L464.2-1Q461.85-2.25 461.85-5.15L461.85-5.15Q461.85-7 462.9-8.63 463.95-10.25 465.6-11.1L465.6-11.1Q463.25-12.2 461.93-14.23 460.6-16.25 460.6-18.95L460.6-18.95Q460.6-21.85 462.2-24.03 463.8-26.2 466.38-27.35 468.95-28.5 471.75-28.5L471.75-28.5Q476.4-28.5 479.2-26.45L479.2-26.45Q479.95-27.15 481.53-27.83 483.1-28.5 484.9-28.5L484.9-28.5 486.55-28.5 486.55-24.8 480.85-24.8Q482.3-22.8 482.3-19.95L482.3-19.95Q482.3-17 480.8-14.73 479.3-12.45 476.78-11.2 474.25-9.95 471.2-9.95L471.2-9.95Q469.15-9.95 467.45-10.4L467.45-10.4Q466.55-9.7 466.03-8.78 465.5-7.85 465.5-6.9L465.5-6.9Q465.5-5 466.73-4.25 467.95-3.5 471-3.5L471-3.5 476.9-3.5Q481.55-3.5 483.78-1.7 486 0.1 486 3.35L486 3.35Q486 6.05 484.05 8.38 482.1 10.7 478.73 12.1 475.35 13.5 471.35 13.5L471.35 13.5ZM471.7-12.4Q478.05-12.4 478.05-19.4L478.05-19.4Q478.05-26.05 471.45-26.05L471.45-26.05Q464.85-26.05 464.85-19.5L464.85-19.5Q464.85-16.35 466.55-14.38 468.25-12.4 471.7-12.4L471.7-12.4ZM471.6 10.95Q474.3 10.95 476.75 10.18 479.2 9.4 480.7 7.93 482.2 6.45 482.2 4.5L482.2 4.5Q482.2 2.95 481.73 2 481.25 1.05 479.88 0.53 478.5 0 475.9 0L475.9 0 469.7 0Q467.3 0 466.05-0.3L466.05-0.3Q463.6 2.05 463.6 5.2L463.6 5.2Q463.6 8.05 465.4 9.5 467.2 10.95 471.6 10.95L471.6 10.95ZM513.25 0.55Q510.7 0.55 508.75 0.1 506.8-0.35 504.25-1.15L504.25-1.15Q502.55-1.7 502.2-1.75L502.2-1.75 502.6-10.65 505.2-10.65 505.95-4.1Q506.9-3.2 508.97-2.55 511.05-1.9 513.5-1.9L513.5-1.9Q517.55-1.9 519.7-3.75 521.85-5.6 521.85-8.85L521.85-8.85Q521.85-10.95 520.72-12.4 519.6-13.85 517.82-14.85 516.05-15.85 512.9-17.2L512.9-17.2Q509.95-18.45 507.87-19.7 505.8-20.95 504.25-23.08 502.7-25.2 502.7-28.15L502.7-28.15Q502.7-30.9 504.2-33.05 505.7-35.2 508.37-36.38 511.05-37.55 514.5-37.55L514.5-37.55Q516.6-37.55 518.22-37.23 519.85-36.9 522.35-36.2L522.35-36.2Q523.7-35.8 523.95-35.75L523.95-35.75 523.65-27.55 521.15-27.55 520.25-33.75Q519.65-34.25 517.92-34.73 516.2-35.2 514.25-35.2L514.25-35.2Q510.55-35.2 508.6-33.68 506.65-32.15 506.65-29.15L506.65-29.15Q506.65-27.1 507.7-25.73 508.75-24.35 510.4-23.4 512.05-22.45 515.5-20.85L515.5-20.85Q519.1-19.15 521.12-17.93 523.15-16.7 524.67-14.73 526.2-12.75 526.2-9.95L526.2-9.95Q526.2-7.3 524.65-4.88 523.1-2.45 520.15-0.95 517.2 0.55 513.25 0.55L513.25 0.55ZM534.35 12.45Q533.64 12.45 532.92 12.35 532.2 12.25 531.89 12.1L531.89 12.1 531.89 8.4Q532.5 8.7 534.45 8.7L534.45 8.7Q536 8.7 537.27 8.08 538.55 7.45 539.89 5.55 541.25 3.65 542.55 0L542.55 0 540.35 0 530.8-25.05 528.45-25.7 528.45-27.75 539.5-27.75 539.5-25.7 535.45-25.1 540.7-9.8 543.3-1.65 545.8-9.85 550.5-25.1 547-25.7 547-27.75 556.6-27.75 556.6-25.7 554-25.1Q550.25-13.6 548.07-7.13 545.89-0.65 545.3 0.8L545.3 0.8Q543.55 5.2 542.2 7.58 540.85 9.95 539 11.2 537.14 12.45 534.35 12.45L534.35 12.45ZM562.54-7.85L563.29-3.95Q563.84-3.1 565.59-2.45 567.34-1.8 569.34-1.8L569.34-1.8Q575.44-1.8 575.44-6.3L575.44-6.3Q575.44-8.35 573.74-9.63 572.04-10.9 567.94-12.45L567.94-12.45Q563.89-13.9 562.04-15.9 560.19-17.9 560.19-21.25L560.19-21.25Q560.19-23.4 561.52-25 562.84-26.6 565.07-27.48 567.29-28.35 569.89-28.35L569.89-28.35Q572.44-28.35 574.17-27.9 575.89-27.45 577.59-26.8L577.59-26.8 577.59-20.85 575.14-20.85 574.24-24.5Q573.89-25.15 572.47-25.6 571.04-26.05 569.34-26.05L569.34-26.05Q566.94-26.05 565.44-24.98 563.94-23.9 563.94-22.1L563.94-22.1Q563.94-20.5 564.69-19.45 565.44-18.4 566.54-17.78 567.64-17.15 569.59-16.35L569.59-16.35 570.54-15.95Q573.39-14.85 575.14-13.88 576.89-12.9 578.04-11.33 579.19-9.75 579.19-7.4L579.19-7.4Q579.19-3.7 576.37-1.58 573.54 0.55 568.84 0.55L568.84 0.55Q566.69 0.55 563.94-0.15 561.19-0.85 559.84-1.55L559.84-1.55 559.84-7.85 562.54-7.85ZM592.64 0.55Q589.99 0.55 588.64-0.68 587.29-1.9 587.29-5.05L587.29-5.05 587.29-24.8 583.49-24.8 583.49-26.75Q585.99-27.3 586.39-27.55L586.39-27.55Q587.14-27.95 587.49-29.1L587.49-29.1Q587.79-29.85 588.29-31.8 588.79-33.75 589.04-34.85L589.04-34.85 591.34-34.85 591.34-27.75 600.19-27.75 600.19-24.8 591.34-24.8 591.34-8.6Q591.34-5.7 591.54-4.53 591.74-3.35 592.34-3 592.94-2.65 594.44-2.65L594.44-2.65Q595.89-2.65 597.69-3.05 599.49-3.45 600.39-3.9L600.39-3.9 601.04-2Q599.89-1.1 597.24-0.28 594.59 0.55 592.64 0.55L592.64 0.55ZM616.44 0.55Q610.64 0.55 607.51-3.43 604.39-7.4 604.39-14L604.39-14Q604.39-18.25 606.04-21.55 607.69-24.85 610.61-26.68 613.54-28.5 617.19-28.5L617.19-28.5Q621.64-28.5 624.11-25.95 626.59-23.4 626.79-18.6L626.79-18.6Q626.79-15.5 626.49-14.2L626.49-14.2 608.69-14.2Q608.69-8.95 611.06-5.63 613.44-2.3 617.74-2.3L617.74-2.3Q619.84-2.3 622.04-3.05 624.24-3.8 625.44-4.85L625.44-4.85 626.24-3Q624.79-1.5 622.01-0.48 619.24 0.55 616.44 0.55L616.44 0.55ZM608.74-16.55L622.29-16.55Q622.44-17.6 622.44-18.75L622.44-18.75Q622.39-22.05 620.86-24 619.34-25.95 616.19-25.95L616.19-25.95Q609.34-25.95 608.74-16.55L608.74-16.55ZM631.23 0L631.23-2.15 634.43-2.55 634.43-24.45 630.58-25.3 630.58-27.55 636.93-28.35 638.03-27.55 638.03-25.35 637.98-24.1Q639.83-25.7 642.83-27.05 645.83-28.4 648.28-28.4L648.28-28.4Q650.98-28.4 652.61-27.5 654.23-26.6 655.08-24.7L655.08-24.7Q656.63-26 659.61-27.2 662.58-28.4 665.08-28.4L665.08-28.4Q668.23-28.4 669.96-27.2 671.68-26 672.38-23.5 673.08-21 673.08-16.75L673.08-16.75 673.08-2.55 676.88-2.15 676.88 0 665.68 0 665.68-2.15 669.08-2.55 669.08-16.6Q669.08-19.75 668.63-21.6 668.18-23.45 666.88-24.4 665.58-25.35 663.08-25.35L663.08-25.35Q661.23-25.35 659.21-24.53 657.18-23.7 655.73-22.65L655.73-22.65Q656.23-20.35 656.23-16.65L656.23-16.65 656.23-2.55 660.03-2.15 660.03 0 648.58 0 648.58-2.15 652.18-2.55 652.18-16.7Q652.18-19.9 651.81-21.7 651.43-23.5 650.23-24.4 649.03-25.3 646.68-25.3L646.68-25.3Q644.73-25.3 642.46-24.33 640.18-23.35 638.48-22L638.48-22 638.48-2.55 642.03-2.15 642.03 0 631.23 0Z" opacity="1" transform="matrix(1,0,0,1,0,0)" fill="#97978d" class="slogan-text-1" data-fill-palette-color="secondary" id="text-1"></path></svg></g></svg></g></svg></g></svg></g></svg></g></svg></g></svg></g><path d="M273.675 41.215L273.675 0 26.475 0 26.475 247.2 273.675 247.2 273.675 205.985 263.738 205.985 263.738 237.263 36.412 237.263 36.412 9.937 263.738 9.937 263.738 41.215Z" fill="#97978d" stroke="transparent" data-fill-palette-color="primary"></path></svg></g><defs></defs></svg><rect width="395.52" height="247.2" fill="none" stroke="none" visibility="hidden"></rect></g></svg></g></svg>